PathFileType	4	(X/Y/Z)	C:/Users/opensim2020/Desktop/walking_exp_matlab/subject02_walking06_static.trc	
DataRate	CameraRate	NumFrames	NumMarkers	Units	OrigDataRate	OrigDataStartFrame	OrigNumFrames	
100.00	100.00	4	41	mm	100.00	72	287	
Frame#	Time	LFHD			RFHD			LBHD			RBHD			C7			T10			CLAV			STRN			RBAK			LSHO			LUPA			LELB			LFRM			LWRA			LWRB			LFIN			RSHO			RUPA			RELB			RFRM			RWRA			RWRB			RFIN			LASI			RASI			LPSI			RPSI			LTHI			LKNE			LTIB			LANK			LHEE			LTOE			RTHI			RKNE			RTIB			RANK			RHEE			RTOE			*39			*40			
		X1	Y1	Z1	X2	Y2	Z2	X3	Y3	Z3	X4	Y4	Z4	X5	Y5	Z5	X6	Y6	Z6	X7	Y7	Z7	X8	Y8	Z8	X9	Y9	Z9	X10	Y10	Z10	X11	Y11	Z11	X12	Y12	Z12	X13	Y13	Z13	X14	Y14	Z14	X15	Y15	Z15	X16	Y16	Z16	X17	Y17	Z17	X18	Y18	Z18	X19	Y19	Z19	X20	Y20	Z20	X21	Y21	Z21	X22	Y22	Z22	X23	Y23	Z23	X24	Y24	Z24	X25	Y25	Z25	X26	Y26	Z26	X27	Y27	Z27	X28	Y28	Z28	X29	Y29	Z29	X30	Y30	Z30	X31	Y31	Z31	X32	Y32	Z32	X33	Y33	Z33	X34	Y34	Z34	X35	Y35	Z35	X36	Y36	Z36	X37	Y37	Z37	X38	Y38	Z38	X39	Y39	Z39	X40	Y40	Z40	X41	Y41	Z41	

72	0.710	-19.11651	-693.16650	1751.52112	-2.12573	-551.84314	1733.02209	102.61207	-718.63885	1665.67920	132.22733	-579.23767	1644.74121	152.24751	-644.94965	1525.00586	193.80222	-638.28711	1248.99536	2.15290	-650.87982	1474.30457	-62.03415	-639.29248	1309.15356	190.97295	-567.02429	1352.72644	49.83789	-818.63641	1514.65845	42.82135	-928.59674	1334.67859	50.14866	-961.39221	1195.23889	33.91008	-975.43726	1060.13074	-12.49056	-931.55524	936.30963	24.02616	-975.05133	937.07104	0.01400	-974.85986	875.39459	54.45754	-462.05255	1514.38184	55.71220	-343.81607	1347.91333	35.40955	-309.22806	1200.60608	-1.31244	-299.24893	1082.36255	-42.53833	-332.42676	956.70166	-11.55609	-285.47433	952.16388	-50.75059	-296.13251	892.33368	-38.08714	-757.55164	993.84723	-28.26314	-507.40234	986.28369	173.81166	-689.32245	1028.90881	182.66260	-574.49530	1030.58813	37.39419	-838.08392	686.24164	71.31103	-827.65094	484.41711	126.44568	-851.77307	299.59265	116.26353	-847.22797	72.46415	151.63855	-801.28302	40.88041	-42.82959	-860.33575	30.99885	60.22876	-414.72641	683.08667	60.42651	-431.29764	471.68405	111.97884	-403.88004	292.06534	134.30328	-415.21460	96.83060	166.75365	-465.10104	37.49512	-15.35193	-379.73837	37.96011	99.25992	-618.55176	1808.43201	-3360.28296	2845.20435	1033.90356 
73	0.720	-19.16698	-693.30151	1751.54382	-2.13843	-551.86224	1733.04626	102.57104	-718.69513	1665.64832	131.90466	-579.61902	1644.72852	152.26436	-645.07513	1524.94360	193.85168	-638.52197	1249.03186	2.20056	-650.94720	1474.26819	-61.99726	-639.36627	1309.13843	191.02553	-567.34589	1352.71899	49.76894	-818.70679	1514.81445	42.76896	-928.70923	1334.82959	50.28214	-961.54480	1195.35730	34.29138	-975.97382	1060.31921	-12.03097	-931.75806	936.45886	24.59739	-974.88141	936.96887	0.76810	-974.89465	875.39313	54.70515	-462.12448	1514.15442	55.91856	-343.88632	1347.54822	35.63478	-309.33533	1200.31970	-1.25319	-299.47415	1082.18298	-42.65126	-332.79221	956.56152	-11.65781	-285.82150	951.97998	-50.91193	-296.60403	892.20270	-38.12952	-757.49109	993.87195	-28.19389	-507.39325	986.30396	173.85367	-689.36456	1028.90710	182.61528	-574.52753	1030.62695	37.35503	-838.11896	686.24860	71.31802	-827.63654	484.39966	126.37277	-851.67377	299.51358	116.16017	-847.11096	72.37167	151.62726	-801.31140	40.84019	-42.84501	-860.33527	30.97499	60.24031	-414.72421	683.06952	60.44430	-431.33783	471.69052	111.99726	-403.87067	292.05914	134.30746	-415.21524	96.83179	166.71783	-465.13873	37.50298	-15.35192	-379.73630	37.95842	99.23795	-618.79559	1808.43848	-3357.32373	2846.03418	1033.90662 
74	0.730	-19.14843	-693.12146	1751.41882	-2.06553	-551.89990	1733.01172	102.52190	-718.76904	1665.63806	132.26595	-579.38245	1644.75513	152.30956	-645.21906	1524.90930	193.86377	-638.78802	1249.02234	2.23742	-651.01611	1474.23071	-61.99427	-639.43658	1309.10828	191.10983	-568.51221	1352.62756	49.77052	-818.81781	1514.93762	42.63584	-928.87299	1335.10559	50.47020	-961.62439	1195.46899	34.81819	-975.62537	1060.27551	-11.44618	-931.85870	936.48187	25.22309	-974.94788	937.08209	1.71097	-974.83972	875.39941	54.91041	-462.22049	1513.92957	56.38375	-343.83878	1347.29114	35.82073	-309.40427	1200.09521	-1.34790	-299.79922	1081.80676	-42.64335	-333.18753	956.38507	-11.84069	-286.50391	951.56183	-51.17348	-296.99127	892.08691	-38.16333	-757.43066	993.85876	-28.09822	-507.39160	986.32288	173.87680	-689.41083	1028.87854	182.62134	-574.57397	1030.67346	37.30622	-838.11487	686.22034	71.30755	-827.61102	484.37753	126.40197	-851.70105	299.53922	116.16854	-847.35919	72.51969	151.63258	-801.32751	40.85604	-42.84061	-860.34937	30.99146	60.27285	-414.73740	683.06378	60.41729	-431.30118	471.69388	112.01051	-403.88364	292.05673	134.32693	-415.23059	96.82114	166.74513	-465.07031	37.49716	-15.33904	-379.73831	37.94708	99.26170	-618.74774	1808.39746	-3360.19702	2845.08252	1033.84607 
75	0.740	-19.24094	-693.29431	1751.52612	-2.05764	-551.89941	1732.97546	102.47158	-718.85437	1665.63037	132.30626	-579.48901	1644.72693	152.32961	-645.34003	1524.85718	193.85095	-639.01654	1248.99817	2.27711	-651.06525	1474.21643	-61.96379	-639.50378	1309.10400	190.76256	-569.06415	1352.47241	49.72364	-818.91907	1515.04016	42.47238	-928.98962	1335.23059	50.73353	-961.67889	1195.59436	35.22729	-975.80023	1060.41724	-10.78118	-932.00952	936.53314	26.02168	-975.17828	937.32544	2.55823	-975.02570	875.43170	55.13760	-462.30450	1513.76465	56.74303	-343.99225	1346.96631	36.20125	-309.78030	1199.87256	-1.18801	-299.93546	1081.80249	-42.65071	-333.58301	956.26129	-11.91881	-286.83075	951.38013	-51.42070	-297.30591	892.02557	-38.22371	-757.40424	993.92566	-28.03917	-507.42654	986.32898	173.91432	-689.48297	1028.86169	182.61739	-574.62701	1030.67590	37.25785	-838.12238	686.23737	71.36656	-827.57300	484.44629	126.40665	-851.70453	299.53476	116.25636	-847.43390	72.56351	151.63411	-801.30658	40.83647	-42.83010	-860.32532	30.99111	60.32312	-414.71964	683.07507	60.46562	-431.33649	471.72021	112.03197	-403.90762	292.06668	134.33128	-415.20728	96.83698	166.58411	-465.15967	37.30024	-15.33689	-379.73508	37.99503	99.25352	-618.73535	1808.37781	-3357.19849	2845.79883	1034.00085 
